<mxfile host="65bd71144e">
    <diagram name="Page-1" id="6lc6j4jsBSMnY9UfaCnR">
        <mxGraphModel dx="390" dy="692" grid="1" gridSize="10" guides="1" tooltips="1" connect="1" arrows="1" fold="1" page="1" pageScale="1" pageWidth="850" pageHeight="1100" math="0" shadow="0">
            <root>
                <mxCell id="0"/>
                <mxCell id="1" parent="0"/>
                <mxCell id="bwNeNpBCWAekBOxRI_Yp-1" value="main.js" style="rounded=0;whiteSpace=wrap;html=1;" parent="1" vertex="1">
                    <mxGeometry x="80" y="380" width="120" height="60" as="geometry"/>
                </mxCell>
                <mxCell id="bwNeNpBCWAekBOxRI_Yp-20" style="edgeStyle=orthogonalEdgeStyle;rounded=0;orthogonalLoop=1;jettySize=auto;html=1;entryX=1;entryY=0.5;entryDx=0;entryDy=0;" parent="1" source="bwNeNpBCWAekBOxRI_Yp-2" target="bwNeNpBCWAekBOxRI_Yp-8" edge="1">
                    <mxGeometry relative="1" as="geometry">
                        <Array as="points">
                            <mxPoint x="700" y="130"/>
                        </Array>
                    </mxGeometry>
                </mxCell>
                <mxCell id="bwNeNpBCWAekBOxRI_Yp-2" value="TransientState.js" style="rounded=0;whiteSpace=wrap;html=1;" parent="1" vertex="1">
                    <mxGeometry x="640" y="290" width="120" height="60" as="geometry"/>
                </mxCell>
                <mxCell id="bwNeNpBCWAekBOxRI_Yp-17" style="edgeStyle=orthogonalEdgeStyle;rounded=0;orthogonalLoop=1;jettySize=auto;html=1;" parent="1" source="bwNeNpBCWAekBOxRI_Yp-3" target="bwNeNpBCWAekBOxRI_Yp-1" edge="1">
                    <mxGeometry relative="1" as="geometry">
                        <Array as="points">
                            <mxPoint x="170" y="240"/>
                        </Array>
                    </mxGeometry>
                </mxCell>
                <mxCell id="bwNeNpBCWAekBOxRI_Yp-3" value="Technologies.js" style="rounded=0;whiteSpace=wrap;html=1;" parent="1" vertex="1">
                    <mxGeometry x="365" y="210" width="120" height="60" as="geometry"/>
                </mxCell>
                <mxCell id="bwNeNpBCWAekBOxRI_Yp-16" style="edgeStyle=orthogonalEdgeStyle;rounded=0;orthogonalLoop=1;jettySize=auto;html=1;entryX=1;entryY=0.5;entryDx=0;entryDy=0;" parent="1" source="bwNeNpBCWAekBOxRI_Yp-4" target="bwNeNpBCWAekBOxRI_Yp-1" edge="1">
                    <mxGeometry relative="1" as="geometry">
                        <mxPoint x="150" y="490" as="targetPoint"/>
                    </mxGeometry>
                </mxCell>
                <mxCell id="bwNeNpBCWAekBOxRI_Yp-4" value="Paints.js" style="rounded=0;whiteSpace=wrap;html=1;" parent="1" vertex="1">
                    <mxGeometry x="365" y="330" width="120" height="60" as="geometry"/>
                </mxCell>
                <mxCell id="bwNeNpBCWAekBOxRI_Yp-15" style="edgeStyle=orthogonalEdgeStyle;rounded=0;orthogonalLoop=1;jettySize=auto;html=1;entryX=1;entryY=0.5;entryDx=0;entryDy=0;" parent="1" source="bwNeNpBCWAekBOxRI_Yp-5" target="bwNeNpBCWAekBOxRI_Yp-1" edge="1">
                    <mxGeometry relative="1" as="geometry"/>
                </mxCell>
                <mxCell id="bwNeNpBCWAekBOxRI_Yp-5" value="Interiors.js" style="rounded=0;whiteSpace=wrap;html=1;" parent="1" vertex="1">
                    <mxGeometry x="365" y="440" width="120" height="60" as="geometry"/>
                </mxCell>
                <mxCell id="bwNeNpBCWAekBOxRI_Yp-13" style="edgeStyle=orthogonalEdgeStyle;rounded=0;orthogonalLoop=1;jettySize=auto;html=1;entryX=0.5;entryY=1;entryDx=0;entryDy=0;" parent="1" source="bwNeNpBCWAekBOxRI_Yp-6" target="bwNeNpBCWAekBOxRI_Yp-1" edge="1">
                    <mxGeometry relative="1" as="geometry"/>
                </mxCell>
                <mxCell id="bwNeNpBCWAekBOxRI_Yp-6" value="Wheels.js" style="rounded=0;whiteSpace=wrap;html=1;" parent="1" vertex="1">
                    <mxGeometry x="365" y="560" width="120" height="60" as="geometry"/>
                </mxCell>
                <mxCell id="bwNeNpBCWAekBOxRI_Yp-9" style="edgeStyle=orthogonalEdgeStyle;rounded=0;orthogonalLoop=1;jettySize=auto;html=1;entryX=1;entryY=0.5;entryDx=0;entryDy=0;" parent="1" source="bwNeNpBCWAekBOxRI_Yp-7" target="bwNeNpBCWAekBOxRI_Yp-3" edge="1">
                    <mxGeometry relative="1" as="geometry"/>
                </mxCell>
                <mxCell id="bwNeNpBCWAekBOxRI_Yp-10" style="edgeStyle=orthogonalEdgeStyle;rounded=0;orthogonalLoop=1;jettySize=auto;html=1;entryX=1;entryY=0.5;entryDx=0;entryDy=0;" parent="1" source="bwNeNpBCWAekBOxRI_Yp-7" target="bwNeNpBCWAekBOxRI_Yp-4" edge="1">
                    <mxGeometry relative="1" as="geometry"/>
                </mxCell>
                <mxCell id="bwNeNpBCWAekBOxRI_Yp-11" style="edgeStyle=orthogonalEdgeStyle;rounded=0;orthogonalLoop=1;jettySize=auto;html=1;entryX=1;entryY=0.5;entryDx=0;entryDy=0;" parent="1" source="bwNeNpBCWAekBOxRI_Yp-7" target="bwNeNpBCWAekBOxRI_Yp-5" edge="1">
                    <mxGeometry relative="1" as="geometry"/>
                </mxCell>
                <mxCell id="bwNeNpBCWAekBOxRI_Yp-12" style="edgeStyle=orthogonalEdgeStyle;rounded=0;orthogonalLoop=1;jettySize=auto;html=1;entryX=1;entryY=0.5;entryDx=0;entryDy=0;startArrow=classicThin;startFill=1;" parent="1" source="bwNeNpBCWAekBOxRI_Yp-7" target="bwNeNpBCWAekBOxRI_Yp-6" edge="1">
                    <mxGeometry relative="1" as="geometry"/>
                </mxCell>
                <mxCell id="bwNeNpBCWAekBOxRI_Yp-19" style="edgeStyle=orthogonalEdgeStyle;rounded=0;orthogonalLoop=1;jettySize=auto;html=1;entryX=0.5;entryY=1;entryDx=0;entryDy=0;" parent="1" source="bwNeNpBCWAekBOxRI_Yp-7" target="bwNeNpBCWAekBOxRI_Yp-2" edge="1">
                    <mxGeometry relative="1" as="geometry"/>
                </mxCell>
                <mxCell id="bwNeNpBCWAekBOxRI_Yp-7" value="database.json" style="rounded=0;whiteSpace=wrap;html=1;" parent="1" vertex="1">
                    <mxGeometry x="640" y="490" width="120" height="60" as="geometry"/>
                </mxCell>
                <mxCell id="bwNeNpBCWAekBOxRI_Yp-21" style="edgeStyle=orthogonalEdgeStyle;rounded=0;orthogonalLoop=1;jettySize=auto;html=1;entryX=0.25;entryY=0;entryDx=0;entryDy=0;" parent="1" source="bwNeNpBCWAekBOxRI_Yp-8" target="bwNeNpBCWAekBOxRI_Yp-1" edge="1">
                    <mxGeometry relative="1" as="geometry"/>
                </mxCell>
                <mxCell id="bwNeNpBCWAekBOxRI_Yp-8" value="Orders.js" style="rounded=0;whiteSpace=wrap;html=1;" parent="1" vertex="1">
                    <mxGeometry x="365" y="100" width="120" height="60" as="geometry"/>
                </mxCell>
            </root>
        </mxGraphModel>
    </diagram>
</mxfile>